<svg id="svg" version="1.1" viewBox="0 0 300 300" width="1024" height="1024" xmlns="http://www.w3.org/2000/svg">
  <svg xmlns="http://www.w3.org/2000/svg">
    <defs>
      <clipPath id="clip-1">
        <rect x="0" y="0" transform="scale(0.14648,0.14648)" width="2048" height="2048" fill="none"/>
      </clipPath>
      <linearGradient x1="149.77002" y1="116.33262" x2="149.64697" y2="111.42861" gradientUnits="userSpaceOnUse" id="color-1">
        <stop offset="0" stop-color="#65391d"/>
        <stop offset="1" stop-color="#965b24"/>
      </linearGradient>
      <linearGradient x1="163.49854" y1="117.22368" x2="165.04395" y2="118.1748" gradientUnits="userSpaceOnUse" id="color-2">
        <stop offset="0" stop-color="#9b662c"/>
        <stop offset="1" stop-color="#b37f3a"/>
      </linearGradient>
      <linearGradient x1="158.51514" y1="121.99775" x2="163.4502" y2="129.548" gradientUnits="userSpaceOnUse" id="color-3">
        <stop offset="0" stop-color="#9c652a"/>
        <stop offset="1" stop-color="#b87b39"/>
      </linearGradient>
      <linearGradient x1="119.57622" y1="109.71621" x2="121.63286" y2="111.92886" gradientUnits="userSpaceOnUse" id="color-4">
        <stop offset="0" stop-color="#171614"/>
        <stop offset="1" stop-color="#242c23"/>
      </linearGradient>
    </defs>
    <rect width="300" height="300" rx="67.5" fill="#ffffff" />
    <g transform="translate(149.97, 132.63) scale(1.25) translate(-149.97, -132.63)">
    <g clip-path="url(#clip-1)" fill="none" fill-rule="nonzero" stroke="none" stroke-width="1" stroke-linecap="butt" stroke-linejoin="miter" stroke-miterlimit="10" stroke-dasharray="" stroke-dashoffset="0" font-family="none" font-weight="none" font-size="none" text-anchor="none" style="mix-blend-mode: normal">
      <path d="M223.96582,77.71025c-0.47754,2.27871 -3.14941,6.67441 -4.35498,9.0293c-1.51904,2.99546 -2.97217,6.02388 -4.35791,9.08306c-4.68457,10.33374 -8.73779,20.8125 -13.1748,31.24673c-0.81592,1.91821 -1.77832,3.79482 -2.60156,5.71055c2.58105,-2.88721 6.14355,-5.98477 9.64453,-7.68882c-0.18896,-0.90879 0.49512,-3.10034 0.75732,-4.1061c0.94922,0.78325 1.46045,1.68267 2.47412,2.28149c2.19727,-1.07769 6.19775,-3.20303 8.42725,-3.48486l1.62012,-3.94263c0.95068,1.00298 1.42383,1.61265 2.24414,2.73384c3.16699,-1.10405 8.30713,-1.97607 11.75977,-2.88354c3.30469,-0.86851 6.60205,-2.1416 9.72949,-2.94712c-2.24268,2.57197 -4.48389,4.46675 -6.79102,6.88154c-3.69727,3.91641 -7.23486,7.98091 -10.604,12.18354c-7.71533,9.49336 -14.02002,19.22842 -22.19385,28.69277l1.47363,-0.51123c1.49121,-0.76172 4.6875,-1.77393 6.36328,-2.23975c0.95947,-0.51416 1.7959,-2.25879 2.44922,-3.29443c0.62402,0.83643 1.17627,1.57764 1.85889,2.36572c1.33887,-0.38965 3.19922,-0.48779 4.58936,-0.57129c0.40869,-0.2373 1.35059,-0.14355 1.875,-0.13477c0.72803,-0.75439 1.55273,-2.3877 2.15186,-3.37793c0.52441,1.14404 1.13525,2.61621 1.84424,3.61963c3.86865,-0.2373 9.27393,0.99463 13.24512,1.57324c2.87256,0.41748 5.97363,0.70459 8.7876,1.13818l-0.22852,0.10693c-1.61572,0.74268 -3.50537,1.29199 -5.19727,1.93359c-4.54541,1.72119 -9.05273,3.41748 -13.32422,5.76416c-3.35303,1.8457 -6.62988,3.82324 -9.82471,5.93115c-4.53076,3.03809 -8.96484,6.36475 -13.66699,9.09668c-4.01221,2.33203 -8.34229,4.5542 -12.67822,6.22998c-2.33203,0.90088 -4.72998,1.57764 -7.06201,2.42871c2.61768,0.65625 4.62158,1.1543 7.02539,2.34961c1.20996,-0.52295 2.40674,-1.07666 3.5874,-1.66113c0.01465,1.17041 0.00732,2.34229 -0.02051,3.5127l0.70459,0.32813c1.17334,1.16309 2.78027,2.47266 4.05029,3.59619c0.40283,0.49805 2.34229,2.95459 2.71289,3.271c0.78223,1.63184 3.11865,4.979 3.50391,6.81445l0.4541,0.72949c0.85693,2.42432 1.90576,4.99512 2.37012,7.51904c-1.16602,-0.61963 -2.33643,-1.43555 -3.44385,-2.16797c-1.67871,0.32813 -4.49854,0.87891 -6.14062,0.89355c-2.26904,0.25488 -4.64502,0.39844 -6.92725,0.55957c-10.71973,0.76172 -21.4248,0.97266 -32.16064,1.15283c-10.34033,0.18311 -20.68301,0.17432 -31.02261,-0.0249c-12.7292,-0.07324 -25.45005,-0.67236 -38.12974,-1.79736c-1.52886,0.07178 -4.32524,-0.39551 -5.82246,-0.68848c-1.31909,0.70605 -2.21104,1.33301 -3.43433,2.17822c0.25664,-2.08594 1.6311,-5.50049 2.47837,-7.50586c-1.34238,-0.00586 -2.59717,0.00439 -3.93809,-0.11572c1.12104,-0.07617 3.58799,0.26953 4.19268,-0.29297c1.12764,-2.74658 1.9667,-4.61719 3.66138,-7.13672c0.4771,-0.49072 2.08696,-2.64844 2.27446,-3.23145c0.3772,-0.17432 1.52593,-1.23633 1.91016,-1.5791c0.26177,-0.55078 0.18149,-0.62256 0.0498,-1.25977c-0.43125,-0.41602 -0.34233,-0.27979 -1.12354,-0.33252c1.1792,-0.22998 2.15039,-0.33691 3.34937,-0.46582c0.398,-0.16406 0.43916,-0.22705 0.7875,-0.47607l-0.02461,-3.40723c1.49912,0.3457 2.29233,1.18066 3.80288,1.46777c2.17236,-1.0752 4.52388,-1.60986 6.85811,-2.19873c-1.85713,-0.77783 -4.34839,-1.53223 -6.30923,-2.26318c-3.72085,-1.41504 -7.34004,-3.0835 -10.83208,-4.99365c-9.32725,-5.21924 -16.86372,-11.58545 -26.39165,-16.68311c-3.40532,-1.80029 -6.93677,-3.35303 -10.56636,-4.64209c-2.68374,-0.98145 -5.3439,-1.7666 -7.93228,-2.97656c3.10723,-0.4248 6.19834,-0.70752 9.31567,-1.16309c4.15884,-0.60937 8.36851,-1.77832 12.57803,-1.52051c1.10156,-0.86719 1.46396,-2.21924 2.07012,-3.55078c0.86206,1.19092 1.31309,2.3833 2.30112,3.40869c2.05752,-0.11426 3.20962,0.15381 5.15449,0.27979c0.56426,0.01465 1.01221,0.01172 1.56812,0.104c0.59531,-0.93604 0.82368,-1.29346 1.57178,-2.10937c0.50962,0.8833 1.47349,2.76563 2.23682,3.26807c1.70991,0.29297 4.73701,1.29932 6.2562,2.09766c0.50215,0.15234 1.12983,0.36475 1.62686,0.49072c-7.97065,-8.75098 -14.51602,-18.96519 -21.92622,-28.27822c-3.39741,-4.30034 -7.01221,-8.42446 -10.83003,-12.35625c-2.29292,-2.39033 -4.67417,-4.63213 -6.95742,-7.06787c3.10708,0.89502 6.14707,1.97329 9.29062,2.85952c3.85781,1.0875 8.50913,1.86592 12.2436,3.05654c0.86338,-0.9646 1.54395,-1.76045 2.33716,-2.78071c0.56895,1.46382 0.97749,2.74219 1.92495,4.01763c3.13623,0.76655 5.01431,1.98223 7.82944,3.20273c0.57495,0.09023 0.69946,0.22559 1.17759,-0.17007c0.61758,-0.51094 1.13979,-1.29478 1.68999,-1.89565c0.27817,1.21172 0.70078,3.40005 1.22666,4.44346c4.00781,2.16416 6.25459,4.39731 9.25693,7.6188c-5.7085,-12.06621 -10.14873,-24.41338 -15.64219,-36.59575c-1.54687,-3.39082 -3.16523,-6.74854 -4.85391,-10.07109c-1.2104,-2.32852 -3.51753,-6.23701 -4.24014,-8.60083c1.1584,1.0519 2.93057,2.37056 4.19839,3.41367c4.19722,3.45308 8.53535,6.7582 13.14741,9.64263c0.93076,-0.51328 1.61382,-1.27324 2.39722,-2.0042c0.57451,1.58833 1.07813,3.23892 2.02632,4.63477c4.35264,2.66045 13.09263,8.4791 16.6147,12.32505c0.80127,0.7875 3.6999,4.25698 4.20015,4.60693c0.9252,1.0541 1.56987,1.88496 2.40439,3.01611c1.18374,1.55127 4.65981,6.94058 4.95234,8.72153l-0.2707,0.42949c0.39624,0.18442 0.79688,0.35903 1.20176,0.52354c0.62388,-0.48589 1.78667,-2.10366 2.36177,-2.80151c0.96343,-1.16909 1.6563,-1.94399 2.75889,-3.00791c0.74634,-0.70928 1.49751,-1.41372 2.25322,-2.11304l-0.04468,-0.16626c0.56147,-0.4021 0.36694,-0.38115 0.96914,-0.42393c0.46143,0.225 0.68804,0.72686 0.85576,1.20688c0.28726,-0.11543 1.71548,-1.46309 2.12563,-1.80952c3.80024,-3.121 6.84155,-4.15459 11.775,-4.19795l0.10107,-0.03794c1.48242,0.00234 2.14014,0.11001 3.60352,0.32856c2.99414,0.52734 5.83301,1.71226 8.31299,3.46919c0.80127,0.45513 1.69189,1.20015 2.43311,1.78213c0.7251,-0.68496 0.69434,-0.86016 1.51758,-0.33721l0.10693,0.4062c0.78223,0.62827 1.41797,1.11489 2.1123,1.84409c0.90527,1.1354 1.87646,2.18687 2.80518,3.30249c0.75439,0.90498 1.44141,1.9084 2.2002,2.79888c0.36914,0.0022 0.49805,-0.00044 0.86279,-0.04995l0.1084,-0.2395l0.21094,-0.58096l-0.06299,-0.13359c0.01465,-1.85654 3.81299,-7.57544 4.98633,-9.18809c0.56396,-0.82764 1.65088,-2.05767 2.32031,-2.86084c0.47607,-0.34629 3.55225,-3.85415 4.27734,-4.59053c4.78271,-4.73569 11.44336,-9.08643 17.15039,-12.56147c0.32959,-1.5728 0.75293,-2.78408 1.37109,-4.2542c0.88184,0.69111 1.41357,1.34751 2.40527,1.98325c6.14648,-3.67427 11.69531,-8.62324 17.25586,-13.08472z" fill="#3f7176"/>
      <path d="M149.98828,109.67651c1.48242,0.00234 2.14014,0.11001 3.60352,0.32856c2.99414,0.52734 5.83301,1.71226 8.31299,3.46919c0.80127,0.45513 1.69189,1.20015 2.43311,1.78213c0.7251,-0.68496 0.69434,-0.86016 1.51758,-0.33721l0.10693,0.4062c0.78223,0.62827 1.41797,1.11489 2.1123,1.84409c0.90527,1.1354 1.87646,2.18687 2.80518,3.30249c0.75439,0.90498 1.44141,1.9084 2.2002,2.79888c0.36914,0.0022 0.49805,-0.00044 0.86279,-0.04995l0.1084,-0.2395l0.21094,-0.58096c0.43945,0.59473 0.7002,0.96021 1.06494,1.5999c1.95996,3.32153 3.86426,6.36782 5.15771,10.02803c0.23877,0.6769 0.76172,2.32148 1.37256,2.53052l0.48633,-0.10752l0.22705,-0.15879c0.41016,0.30601 0.2915,0.1084 0.37061,0.60879l0.03662,0.17256c0.35156,2.89292 -0.08057,3.96665 1.49268,6.75571c0.31201,1.51919 0.36621,4.73188 0.40869,6.32271c0.00146,1.24219 -0.01611,2.53564 0.01904,3.77197c0.48926,0.00586 1.35645,-0.0498 1.75049,0.1582l0.02637,0.07324l-0.1377,0.64453l-0.25635,1.92188c-0.76611,2.71582 -1.97461,9.20508 -3.16406,11.55615c-4.42676,2.26758 -8.20166,2.95459 -12.79834,5.6748c-4.4165,2.58838 -7.30664,5.27344 -10.65234,9.07617c-1.84424,2.00537 -7.18799,7.16309 -9.7207,7.65527c0.00879,-1.08838 -0.00732,-3.61084 0.1626,-4.60547l-0.0835,-0.03516c-2.74512,0.16846 -6.15117,-1.01221 -8.65195,-2.01855l-0.51343,-0.55518c-1.2479,-1.09863 -3.07134,-3.19629 -4.33066,-4.48828c-0.42905,-0.28125 -1.84526,-1.50732 -2.32588,-1.89844c-1.59946,-1.30225 -2.86289,-2.16943 -4.6355,-3.2124c-0.698,-0.34131 -1.52739,-0.86572 -2.30728,-1.2583c-1.2498,-0.4043 -2.75273,-1.14404 -4.00635,-1.66846c-1.95586,-0.81592 -4.56504,-1.67578 -6.35991,-2.75098c-1.2104,-2.2749 -2.2897,-8.62646 -3.02739,-11.28809c-0.08057,-0.70752 -0.27407,-1.5249 -0.41953,-2.23096l-0.03032,-0.50391c0.42085,-0.37207 1.03125,-0.26807 1.66699,-0.27686c0.0624,-1.19385 0.04512,-2.38916 0.04043,-3.58594c0.05259,-4.47788 0.67251,-9.49189 1.54482,-13.93169c0.07632,-0.38804 0.10459,-0.32607 0.38027,-0.46934l0.40928,0.42612c0.43799,0.12012 0.43066,0.1355 0.87759,0.11499c0.32271,-0.37471 2.08901,-4.39673 2.5103,-5.24106c1.27954,-2.51323 2.61416,-4.99805 4.00283,-7.45269c0.2187,-0.2978 0.57261,-0.91304 0.78149,-1.2498c0.39624,0.18442 0.79688,0.35903 1.20176,0.52354c0.62388,-0.48589 1.78667,-2.10366 2.36177,-2.80151c0.96343,-1.16909 1.6563,-1.94399 2.75889,-3.00791c0.74634,-0.70928 1.49751,-1.41372 2.25322,-2.11304l-0.04468,-0.16626c0.56147,-0.4021 0.36694,-0.38115 0.96914,-0.42393c0.46143,0.225 0.68804,0.72686 0.85576,1.20688c0.28726,-0.11543 1.71548,-1.46309 2.12563,-1.80952c3.80024,-3.121 6.84155,-4.15459 11.775,-4.19795z" fill="#6b3e19"/>
      <path d="M149.98828,109.67651c1.48242,0.00234 2.14014,0.11001 3.60352,0.32856c2.99414,0.52734 5.83301,1.71226 8.31299,3.46919c-0.34277,-0.01846 -0.45264,-0.02139 -0.76025,-0.1749c-0.11426,0.60952 0.52734,1.72383 0.60498,2.49507c0.15967,1.61587 -0.12891,3.19438 -0.479,4.76602c-0.85547,-0.28008 -1.70801,-0.55093 -2.55176,-0.8647c-0.45264,0.49072 -0.49072,0.5707 -1.07227,0.85767c-0.95947,1.04077 -1.33301,1.61982 -2.12256,2.79727c-0.11426,0.59854 -1.96436,4.51538 -2.89307,4.17554c-0.76318,-0.27905 -1.10742,-1.37417 -2.32031,-1.41255c-0.90967,1.5375 2.8125,2.52466 3.75586,4.0957c-1.24365,-0.67061 -2.51367,-1.9251 -4.05322,-2.7356v1.823l-0.11719,0.0583c0.14941,0.71733 0.14063,1.25215 0.16406,1.979l0.07178,0.02183c-0.48193,1.60269 0.01318,7.40317 -0.17578,9.59941c-1.40186,0.77051 -2.69678,1.49165 -4.00884,2.42446l-0.22515,0.14224c-3.23862,1.45708 -6.88887,5.89497 -8.94873,8.71479c-1.04253,-0.75 -2.36191,-1.97314 -3.53086,-2.1167c-0.52603,0.29443 -1.38442,0.73242 -1.82622,1.08984c-0.26338,0.10693 -0.89854,0.34863 -1.11152,0.47607c-0.36035,-0.5127 -0.65581,-0.90527 -1.05308,-1.39014c-0.92988,-2.14893 -6.19863,-9.49424 -8.10981,-11.16021c-0.69302,-0.60425 -2.81602,-2.11831 -3.68335,-2.80298c0.43799,0.12012 0.43066,0.1355 0.87759,0.11499c0.32271,-0.37471 2.08901,-4.39673 2.5103,-5.24106c1.27954,-2.51323 2.61416,-4.99805 4.00283,-7.45269c0.2187,-0.2978 0.57261,-0.91304 0.78149,-1.2498c0.39624,0.18442 0.79688,0.35903 1.20176,0.52354c0.62388,-0.48589 1.78667,-2.10366 2.36177,-2.80151c0.96343,-1.16909 1.6563,-1.94399 2.75889,-3.00791c0.74634,-0.70928 1.49751,-1.41372 2.25322,-2.11304l-0.04468,-0.16626c0.56147,-0.4021 0.36694,-0.38115 0.96914,-0.42393c0.46143,0.225 0.68804,0.72686 0.85576,1.20688c0.28726,-0.11543 1.71548,-1.46309 2.12563,-1.80952c3.80024,-3.121 6.84155,-4.15459 11.775,-4.19795z" fill="#855022"/>
      <path d="M149.98828,109.67651c1.48242,0.00234 2.14014,0.11001 3.60352,0.32856c2.99414,0.52734 5.83301,1.71226 8.31299,3.46919c-0.34277,-0.01846 -0.45264,-0.02139 -0.76025,-0.1749c-0.11426,0.60952 0.52734,1.72383 0.60498,2.49507c0.15967,1.61587 -0.12891,3.19438 -0.479,4.76602c-0.85547,-0.28008 -1.70801,-0.55093 -2.55176,-0.8647c-0.45264,0.49072 -0.49072,0.5707 -1.07227,0.85767c-0.95947,1.04077 -1.33301,1.61982 -2.12256,2.79727c-0.8584,1.08311 -1.62305,2.68418 -2.36572,3.90073c-1.18652,-0.78472 -1.7915,-1.19194 -3.15527,-1.65923c0.01465,-1.25317 0.14941,-7.42339 -0.30029,-8.10967l-0.83496,0.32168c-1.13086,0.70781 -2.91709,1.26108 -3.84961,2.03599l-0.22764,-0.09434c-0.70225,0.3917 -0.97793,1.0084 -1.4042,1.69775c-0.62153,-0.76245 -1.59609,-1.76733 -2.37993,-2.35107l-2.18247,0.70415c-0.38174,-2.12051 -0.65918,-3.70869 -0.71162,-5.88428c3.80024,-3.121 6.84155,-4.15459 11.775,-4.19795z" fill="#955b27"/>
      <path d="M138.11221,113.9124c3.80024,-3.121 6.84155,-4.15459 11.775,-4.19795c0.24463,0.96885 0.09814,1.02847 1.0459,1.44126l0.06885,-0.03604l-0.75146,0.07134c-1.63184,0.06211 -7.56401,0.11396 -7.71782,2.61255c-0.02417,0.39419 0.65786,1.12617 0.92915,1.44141c1.17349,0.43887 2.92471,1.15459 4.14023,1.17905c0.89795,0.29473 1.13818,0.39126 2.1167,0.43945l0.07617,0.17124c-0.34863,0.27803 -0.45117,0.35684 -0.84961,0.5918l-0.07764,0.17769c-1.13086,0.70781 -2.91709,1.26108 -3.84961,2.03599l-0.22764,-0.09434c-0.70225,0.3917 -0.97793,1.0084 -1.4042,1.69775c-0.62153,-0.76245 -1.59609,-1.76733 -2.37993,-2.35107l-2.18247,0.70415c-0.38174,-2.12051 -0.65918,-3.70869 -0.71162,-5.88428z" fill="#a36a2d"/>
      <path d="M143.46182,115.24497c1.17349,0.43887 2.92471,1.15459 4.14023,1.17905c0.89795,0.29473 1.13818,0.39126 2.1167,0.43945l0.07617,0.17124c-0.34863,0.27803 -0.45117,0.35684 -0.84961,0.5918l-0.07764,0.17769c-1.13086,0.70781 -2.91709,1.26108 -3.84961,2.03599l-0.22764,-0.09434c-0.02534,-1.18521 -0.82441,-3.41235 -1.32861,-4.50088z" fill="#955b27"/>
      <path d="M143.46182,115.24497c-0.27129,-0.31523 -0.95332,-1.04722 -0.92915,-1.44141c0.15381,-2.49858 6.08599,-2.55044 7.71782,-2.61255c3.01758,0.43052 5.51953,0.05303 7.07227,2.99355c-0.22559,0.29355 -1.25391,1.46924 -1.32275,1.57881l-0.68408,0.19175l-2.26172,0.43418c-1.29492,0.12466 -2.27051,0.55942 -3.53906,0.24844c-0.58447,-0.14341 -1.3125,-0.20435 -1.91309,-0.21372c-1.21553,-0.02446 -2.96675,-0.74019 -4.14023,-1.17905z" fill="url(#color-1)"/>
      <path d="M148.71973,112.11577c5.73193,-0.72056 10.75049,2.99941 3.07471,3.60703c-1.3916,0.11396 -7.79414,0.23481 -7.18286,-2.19727c0.87656,-0.93735 2.86011,-1.27529 4.10815,-1.40977z" fill="#d19846"/>
      <path d="M149.98828,109.67651c1.48242,0.00234 2.14014,0.11001 3.60352,0.32856c1.29199,1.20205 3.75293,1.35366 4.75049,2.8689c-0.06738,1.94194 -0.74561,3.13784 -1.82959,4.67227c-0.21533,0.30352 -0.5083,0.8373 -0.81592,1.01045c-0.6958,-0.27935 -0.90234,-1.04648 -0.77344,-1.73936c0.3208,-0.34497 0.84961,-0.72993 1.07666,-1.05396c0.06885,-0.10957 1.09717,-1.28525 1.32275,-1.57881c-1.55273,-2.94053 -4.05469,-2.56304 -7.07227,-2.99355l0.75146,-0.07134l-0.06885,0.03604c-0.94775,-0.41279 -0.80127,-0.47241 -1.0459,-1.44126z" fill="#a36a2d"/>
      <path d="M153.5918,110.00508c2.99414,0.52734 5.83301,1.71226 8.31299,3.46919c-0.34277,-0.01846 -0.45264,-0.02139 -0.76025,-0.1749c-0.11426,0.60952 0.52734,1.72383 0.60498,2.49507c0.15967,1.61587 -0.12891,3.19438 -0.479,4.76602c-0.85547,-0.28008 -1.70801,-0.55093 -2.55176,-0.8647c-0.45264,0.49072 -0.49072,0.5707 -1.07227,0.85767l0.84229,-1.12852c1.06055,0.25942 1.58057,0.46055 2.60156,0.86367c0.79102,-4.6897 0.84229,-4.4625 -2.74805,-7.4146c-0.99756,-1.51523 -3.4585,-1.66685 -4.75049,-2.8689z" fill="#855022"/>
      <path d="M147.60205,116.42402c0.60059,0.00938 1.32861,0.07031 1.91309,0.21372c1.26855,0.31099 2.24414,-0.12378 3.53906,-0.24844c0.11572,0.70781 1.09863,1.07212 1.65674,1.754c0.40576,0.48779 0.75586,0.57891 1.35059,0.69932c0.33545,0.47109 0.08496,2.29541 0.03662,2.9855c-0.97559,-1.90825 -4.15576,-4.54365 -6.39551,-4.34561l-0.83496,0.32168l0.07764,-0.17769c0.39844,-0.23496 0.50098,-0.31377 0.84961,-0.5918l-0.07617,-0.17124c-0.97852,-0.04819 -1.21875,-0.14473 -2.1167,-0.43945z" fill="#6e421c"/>
      <path d="M153.0542,116.38931l2.26172,-0.43418c-0.9082,0.8269 -0.96973,1.01514 -0.60498,2.18818c-0.55811,-0.68188 -1.54102,-1.04619 -1.65674,-1.754z" fill="#855022"/>
      <path d="M135.89297,134.69766c2.53447,1.41709 4.89434,4.00547 6.96812,6.0583c1.01602,1.00576 1.66567,1.90898 2.86099,2.76606c-3.23862,1.45708 -6.88887,5.89497 -8.94873,8.71479c-1.04253,-0.75 -2.36191,-1.97314 -3.53086,-2.1167c-0.52603,0.29443 -1.38442,0.73242 -1.82622,1.08984l-0.45073,-0.29297c-0.32607,-1.4707 -4.59258,-8.30288 -4.61104,-8.66997c1.64839,-2.95034 6.5981,-6.08071 9.53848,-7.54937z" fill="#b97e33"/>
      <path d="M132.95186,139.37666c-0.09463,0.64541 -0.496,1.85771 -0.69917,2.50972c-0.92095,2.95547 -0.44502,5.09019 0.71367,7.84995l0.27612,0.38379c-0.52603,0.29443 -1.38442,0.73242 -1.82622,1.08984l-0.45073,-0.29297c-0.32607,-1.4707 -4.59258,-8.30288 -4.61104,-8.66997c0.55942,0.10151 0.29429,0.13315 0.82148,-0.11689c1.90693,-0.83027 3.56646,-1.83604 5.77588,-2.75347z" fill="#a36a2d"/>
      <path d="M132.96636,149.73633l0.27612,0.38379c-0.52603,0.29443 -1.38442,0.73242 -1.82622,1.08984l-0.45073,-0.29297c0.04688,-0.19922 0.12012,-0.4248 0.179,-0.62402c0.61904,-0.40576 0.89663,-0.30615 1.68618,-0.26514z" fill="#b97e33"/>
      <path d="M135.62256,136.4647c2.6168,1.73745 6.43286,5.02969 8.88735,7.19751c-3.14326,-1.5561 -5.95796,-3.38672 -8.92515,-5.23857c-0.98467,0.20449 -1.7918,0.38145 -2.63291,0.95303c-2.20942,0.91743 -3.86895,1.92319 -5.77588,2.75347c0.16143,-0.97632 7.15239,-5.19683 8.44658,-5.66543z" fill="#d19846"/>
      <path d="M150.06006,131.33408l0.07178,0.02183c-0.48193,1.60269 0.01318,7.40317 -0.17578,9.59941c-1.40186,0.77051 -2.69678,1.49165 -4.00884,2.42446c-1.30532,-2.58398 -3.32461,-5.04521 -5.32061,-7.12236l0.34014,-0.11235c2.34756,-1.25347 6.61919,-4.12368 9.09331,-4.81099z" fill="#b97e33"/>
      <path d="M148.86768,117.8042l0.83496,-0.32168c0.44971,0.68628 0.31494,6.85649 0.30029,8.10967c-1.25977,0.58271 -1.88672,0.89839 -3.07471,1.63301c-0.8688,-1.58555 -2.92354,-4.66963 -2.6647,-6.45366c0.07632,-0.52603 0.36694,-0.63354 0.75454,-0.93135c0.93252,-0.7749 2.71875,-1.32817 3.84961,-2.03599z" fill="#a36a2d"/>
      <path d="M134.16167,114.93896c0.56147,-0.4021 0.36694,-0.38115 0.96914,-0.42393c0.46143,0.225 0.68804,0.72686 0.85576,1.20688c0.12393,0.66855 1.34004,3.40254 1.67139,4.76543c-2.22114,1.58262 -3.80244,2.3833 -5.8979,4.321c0.49717,-4.88511 1.48594,-5.68652 2.44629,-9.70312z" fill="#b97e33"/>
      <path d="M134.49697,115.9938c0.24712,0.19131 1.2293,3.04673 1.45488,3.61421c-1.12046,-1.12002 -1.84819,-2.01079 -1.45488,-3.61421z" fill="#d19846"/>
      <path d="M140.62661,136.25742c-0.45103,-1.42676 7.72104,-8.1731 9.38657,-8.78364v1.823l-0.11719,0.0583c0.14941,0.71733 0.14063,1.25215 0.16406,1.979c-2.47412,0.6873 -6.74575,3.55752 -9.09331,4.81099z" fill="#b97e33"/>
      <path d="M140.96675,136.14507l-0.02534,-0.24902c2.15771,-1.83633 6.35156,-5.59658 8.95459,-6.54097c0.14941,0.71733 0.14063,1.25215 0.16406,1.979c-2.47412,0.6873 -6.74575,3.55752 -9.09331,4.81099z" fill="#d19846"/>
      <path d="M140.19771,121.43247c1.45342,-0.13022 5.2437,5.12021 5.8979,6.37515c-2.25498,1.58452 -5.16577,4.7395 -6.41982,7.21099c-0.45103,-0.41235 -0.96387,-0.83818 -1.42969,-1.2416c-1.6604,-1.33535 -1.65278,-1.32788 -3.72817,-0.79058c-0.4563,-1.03081 -1.80029,-5.8519 -2.22246,-6.24126l-0.52163,0.12729l-0.1374,-0.13154c0.44751,-1.81729 6.83262,-4.70566 8.56128,-5.30845z" fill="#b97e33"/>
      <path d="M139.93667,123.09214c0.26206,0.0501 0.21694,0.02051 0.42041,0.12158c0.80112,0.39771 5.10015,4.01968 5.33906,4.68267c-0.67983,-0.0854 -4.13848,-2.93145 -4.85464,-3.49614c-0.11763,-0.09199 -0.72085,-0.49204 -0.8231,-0.50098c-1.81011,-0.15923 -4.98281,1.9793 -6.42568,2.2207c1.23311,-1.37651 4.57207,-2.56421 6.34395,-3.02783z" fill="#d19846"/>
      <path d="M125.49185,123.88667c0.11558,-0.27979 0.26719,-0.72129 0.43857,-0.9438c0.55225,0.34351 1.1042,1.19297 1.53794,1.71167c1.73716,2.07686 4.51157,5.88721 5.10952,8.5043c0.06899,0.30645 0.12905,0.61494 0.18003,0.9249l-0.09478,0.0772c-0.73491,0.58711 -1.66875,1.15078 -2.46006,1.73159c-1.84805,1.35615 -3.22017,2.62061 -4.79326,4.25068c-0.16201,0.17227 -0.15776,0.14253 -0.37017,0.26484c-4.33857,-3.12246 -1.59917,-12.81211 0.4522,-16.52139z" fill="#b97e33"/>
      <path d="M125.49185,123.88667l0.06636,0.46318c-0.10942,2.23271 -0.04995,3.18105 0.78179,5.26538c-1.58013,3.76406 -1.88379,5.98667 -1.07549,10.24644c0.01948,0.10239 0.08789,0.19395 0.14531,0.28154c-0.16201,0.17227 -0.15776,0.14253 -0.37017,0.26484c-4.33857,-3.12246 -1.59917,-12.81211 0.4522,-16.52139z" fill="#a36a2d"/>
      <path d="M125.5582,124.34985l0.22119,-0.01113c0.43506,0.81621 0.69771,1.77407 1.10464,2.57095c1.10464,2.16343 2.77456,4.67651 4.44961,6.44268c-2.05356,-1.00913 -3.66475,-1.77144 -4.99365,-3.73711c-0.83174,-2.08433 -0.89121,-3.03267 -0.78179,-5.26538z" fill="#d19846"/>
      <path d="M117.04922,135.90659l0.40928,0.42612c0.86733,0.68467 2.99033,2.19873 3.68335,2.80298c1.91118,1.66597 7.17993,9.01128 8.10981,11.16021c0.39727,0.48486 0.69272,0.87744 1.05308,1.39014c-0.70767,0.61377 -2.06191,1.48828 -2.89717,2.17529c-1.81392,1.49268 -3.0457,2.77588 -4.59199,4.48828c-2.23564,-2.37451 -4.11621,-2.69678 -4.82783,-6.05273c-1.06216,-5.0083 -1.75298,-11.32515 -0.93853,-16.39028z" fill="#a36a2d"/>
      <path d="M117.4585,136.33271c0.86733,0.68467 2.99033,2.19873 3.68335,2.80298c1.91118,1.66597 7.17993,9.01128 8.10981,11.16021c0.10518,0.37207 0.14531,0.4292 0.30278,0.78516c-0.99463,0.06885 -3.5228,-1.18506 -4.37739,-1.87793c-0.08071,-1.09131 -6.18662,-9.89106 -7.23428,-11.20225l-0.24888,0.04146c-0.28154,-0.46567 -0.67749,-1.27603 -0.2354,-1.70962z" fill="#b97e33"/>
      <path d="M117.6939,138.04233l0.24888,-0.04146c1.04766,1.31118 7.15356,10.11094 7.23428,11.20225c-5.01738,-3.47446 -5.79214,-5.70967 -7.48315,-11.16079z" fill="#d19846"/>
      <path d="M182.34375,136.45137l0.22705,-0.15879c0.41016,0.30601 0.2915,0.1084 0.37061,0.60879l0.03662,0.17256c-0.24902,2.52656 -0.0542,3.63354 0.10254,6.11689c0.20508,3.23086 -0.5083,8.28281 -2.05371,11.14658c-0.46289,0.85547 -2.91064,3.34131 -3.68848,4.10449c-1.52637,-1.87646 -2.94727,-3.35889 -4.85156,-4.87061c-0.67529,-0.5376 -2.59424,-1.45459 -2.77734,-2.08447l0.20801,-0.20801c0.89209,-1.18799 1.96582,-2.99121 2.82275,-4.25684c3.32813,-4.9188 4.90137,-6.93296 9.60352,-10.57061z" fill="#855022"/>
      <path d="M182.34375,136.45137l0.22705,-0.15879c0.41016,0.30601 0.2915,0.1084 0.37061,0.60879l-0.37207,0.82368c-1.5791,0.63911 -6.99902,9.22368 -7.2041,10.9478c-0.81152,0.88623 -4.33154,2.59863 -5.44775,2.60596c0.89209,-1.18799 1.96582,-2.99121 2.82275,-4.25684c3.32813,-4.9188 4.90137,-6.93296 9.60352,-10.57061z" fill="#a36a2d"/>
      <path d="M175.36523,148.67285c0.20508,-1.72412 5.625,-10.30869 7.2041,-10.9478c-2.07715,5.87988 -1.5,6.89473 -7.2041,10.9478z" fill="#b97e33"/>
      <path d="M113.56582,154.47363l0.19673,-0.16846c0.80728,0.2124 1.93638,1.08252 2.73325,1.54688c5.97964,3.48779 7.96641,7.56885 11.53799,12.73096c0.62197,0.50391 1.09585,1.22314 1.66245,1.82373c-0.81182,0.81885 -1.78711,1.54541 -2.43604,2.20605c-1.2498,-0.4043 -2.75273,-1.14404 -4.00635,-1.66846c-1.95586,-0.81592 -4.56504,-1.67578 -6.35991,-2.75098c-1.2104,-2.2749 -2.2897,-8.62646 -3.02739,-11.28809c-0.08057,-0.70752 -0.27407,-1.5249 -0.41953,-2.23096z" fill="#855022"/>
      <path d="M113.56582,154.47363l0.19673,-0.16846c0.80728,0.2124 1.93638,1.08252 2.73325,1.54688c5.97964,3.48779 7.96641,7.56885 11.53799,12.73096c-0.5584,0.00732 -1.09233,-0.24609 -1.60269,-0.45264c-1.78535,-0.72656 -4.07681,-1.59961 -5.55381,-2.86816c-0.8269,-0.71045 -6.79541,-9.55664 -7.31147,-10.78857z" fill="#a36a2d"/>
      <path d="M157.68018,169.7666c-2.09619,-1.95264 -3.75439,-1.91162 -2.90625,-5.08154c0.2959,-0.01611 0.30029,-0.00439 0.59619,0.03369c1.41797,0.57275 5.27197,4.92627 6.12744,6.32666c-2.69824,2.11816 -5.03613,4.09131 -7.39307,6.59326c-0.31934,0.33838 -0.92725,0.99316 -1.31104,1.18506c-0.2959,-0.04687 -0.5625,-0.08643 -0.85693,-0.14795c-0.39551,-0.38965 -1.38135,-0.83789 -1.91602,-1.11182c-1.04443,0.67529 -1.76367,1.01074 -2.90039,1.54688l-0.61523,-0.81152l0.58008,0.26953c3.28857,-0.11279 2.70117,-2.35547 2.97363,-4.7124c0.25049,-2.15918 -0.51855,-6.67822 -0.16553,-8.48291c2.46533,1.46191 5.20752,3.16553 7.78711,4.39307z" fill="#855022"/>
      <path d="M150.01318,127.47378c1.53955,0.8105 2.80957,2.06499 4.05322,2.7356c1.08545,0.94014 5.90186,4.65308 5.13574,6.03647c-1.53369,1.45122 -4.10889,5.16841 -5.31738,7.00283c-1.04004,-0.9438 -2.62939,-1.77129 -3.92871,-2.29336c0.18896,-2.19624 -0.30615,-7.99673 0.17578,-9.59941l-0.07178,-0.02183c-0.02344,-0.72686 -0.01465,-1.26167 -0.16406,-1.979l0.11719,-0.0583z" fill="#955b27"/>
      <path d="M150.01318,127.47378c1.53955,0.8105 2.80957,2.06499 4.05322,2.7356c1.08545,0.94014 5.90186,4.65308 5.13574,6.03647c-0.36621,-0.2209 -0.35303,-0.20669 -0.63135,-0.53042c-2.64111,-1.48184 -5.69971,-3.11602 -8.43896,-4.35952l-0.07178,-0.02183c-0.02344,-0.72686 -0.01465,-1.26167 -0.16406,-1.979l0.11719,-0.0583z" fill="#a36a2d"/>
      <path d="M150.01318,129.29678c1.36377,0.77842 8.26611,5.23052 8.55762,6.41865c-2.64111,-1.48184 -5.69971,-3.11602 -8.43896,-4.35952l-0.07178,-0.02183c-0.02344,-0.72686 -0.01465,-1.26167 -0.16406,-1.979z" fill="#d19846"/>
      <path d="M169.96875,132.19614c0.04102,-0.19292 -0.01318,-0.04614 0.14355,-0.29326c1.40625,-2.2251 2.71729,-4.52139 4.14844,-6.73154c0.1084,-0.02988 0.21533,-0.05977 0.32373,-0.08965c1.16895,1.59346 3.11572,10.14419 2.51807,12.33765c-0.46729,1.71973 -0.68848,2.02822 -2.0376,3.21108c-2.12109,-2.61094 -4.75342,-4.75942 -7.7373,-6.3126c-0.24023,-0.12407 -0.23584,-0.12832 -0.37207,-0.36284c0.08496,-0.3022 0.01611,-0.20493 0.12451,-0.33413l0.09814,0.14297c0.45264,-0.01538 2.34814,-1.26094 2.79053,-1.56768z" fill="#855022"/>
      <path d="M169.96875,132.19614c0.04102,-0.19292 -0.01318,-0.04614 0.14355,-0.29326c1.40625,-2.2251 2.71729,-4.52139 4.14844,-6.73154c0.1084,-0.02988 0.21533,-0.05977 0.32373,-0.08965c0.0791,3.26133 -1.72852,5.75142 -4.61572,7.11445z" fill="#b97e33"/>
      <path d="M149.89307,165.37354c-0.35303,1.80469 0.41602,6.32373 0.16553,8.48291c-0.27246,2.35693 0.31494,4.59961 -2.97363,4.7124l-0.58008,-0.26953c-2.15918,-2.66748 -4.621,-4.61865 -7.2772,-6.74561c2.3666,-0.94189 8.89438,-4.47949 10.66538,-6.18018z" fill="#955b27"/>
      <path d="M129.56748,173.87109c1.30415,-0.66064 2.5248,-1.38867 3.90439,-1.84863c2.59937,1.11768 11.54575,5.08887 12.54082,7.72412c-0.43872,0.24463 -1.15767,0.57275 -1.44404,0.92578c-1.22754,0.67676 -3.17227,1.54395 -3.70913,2.79785c-1.2479,-1.09863 -3.07134,-3.19629 -4.33066,-4.48828c-0.42905,-0.28125 -1.84526,-1.50732 -2.32588,-1.89844c-1.59946,-1.30225 -2.86289,-2.16943 -4.6355,-3.2124z" fill="#a36a2d"/>
      <path d="M136.52886,178.98193c3.52676,0.7002 5.91782,0.60498 9.48384,0.76465c-0.43872,0.24463 -1.15767,0.57275 -1.44404,0.92578c-1.22754,0.67676 -3.17227,1.54395 -3.70913,2.79785c-1.2479,-1.09863 -3.07134,-3.19629 -4.33066,-4.48828z" fill="#855022"/>
      <path d="M153.84961,179.59424c3.5874,-3.43652 8.29102,-5.62207 12.87598,-7.41797c1.18799,0.54199 2.41846,1.18652 3.59326,1.77686c-4.4165,2.58838 -7.30664,5.27344 -10.65234,9.07617c-2.22803,-1.37842 -3.43359,-2.15332 -5.81689,-3.43506z" fill="#855022"/>
      <path d="M149.85938,161.60156c2.19287,1.06494 3.54639,1.65234 5.51074,3.11719c-0.2959,-0.03809 -0.30029,-0.0498 -0.59619,-0.03369c-0.84814,3.16992 0.81006,3.12891 2.90625,5.08154c-2.57959,-1.22754 -5.32178,-2.93115 -7.78711,-4.39307c-1.771,1.70068 -8.29878,5.23828 -10.66538,6.18018c-1.07314,-0.79248 0.77227,-2.45654 1.396,-3.17432c2.57549,-2.96338 5.71729,-5.08008 9.23569,-6.77783z" fill="#b97e33"/>
      <path d="M172.00342,168.89648c3.8584,-6.44238 7.27441,-11.71729 14.67188,-14.74072l-0.1377,0.64453c-6.1626,9.21826 -4.2876,9.49072 -14.53418,14.09619z" fill="#855022"/>
      <path d="M164.33789,115.2564c0.7251,-0.68496 0.69434,-0.86016 1.51758,-0.33721l0.10693,0.4062l0.03662,0.51768c1.05469,3.32227 1.82227,5.44819 1.94678,9.03237l-0.16699,-0.173c-1.38281,-1.43086 -5.47412,-3.5395 -5.72754,-4.14287c0.02637,-0.77373 0.31787,-1.33887 0.60645,-2.06396l0.30176,-0.22749c0.38379,-1.19985 1.16895,-2.18423 1.37842,-3.01172z" fill="#955b27"/>
      <path d="M164.33789,115.2564c0.7251,-0.68496 0.69434,-0.86016 1.51758,-0.33721l0.10693,0.4062l0.03662,0.51768c0.13916,2.63599 -1.96143,3.50786 -3.84961,4.9771c0.22998,-0.70386 0.64746,-1.8728 0.81006,-2.55205c0.38379,-1.19985 1.16895,-2.18423 1.37842,-3.01172z" fill="url(#color-2)"/>
      <path d="M146.89746,181.12646c0.85254,-0.28125 2.01709,-0.58594 2.67041,-1.1543l0.18896,0.0791c0.21387,0.96387 0.65625,5.2207 0.26807,5.99268c-2.74512,0.16846 -6.15117,-1.01221 -8.65195,-2.01855c1.5123,-0.77783 4.1436,-2.31885 5.52451,-2.89893z" fill="#955b27"/>
      <path d="M149.88135,179.62646c0.48486,0.22412 1.31396,0.45557 1.84863,0.62402c1.02539,1.14404 5.28955,2.60156 6.10107,4.06787c-0.02637,0.19482 0.00293,0.27246 -0.15234,0.31494c-2.27051,0.62988 -5.31445,1.21436 -7.57031,1.4458l-0.0835,-0.03516c0.38818,-0.77197 -0.0542,-5.02881 -0.26807,-5.99268l-0.18896,-0.0791c-0.65332,0.56836 -1.81787,0.87305 -2.67041,1.1543c0.83496,-0.53906 2.05518,-1.06494 2.98389,-1.5z" fill="#855022"/>
      <path d="M174.05127,122.9814c0.33545,0.85957 0.38232,1.21406 0.5332,2.10029c-0.1084,0.02988 -0.21533,0.05977 -0.32373,0.08965c-1.43115,2.21016 -2.74219,4.50645 -4.14844,6.73154c-0.15674,0.24712 -0.10254,0.10034 -0.14355,0.29326c-0.44238,0.30674 -2.33789,1.55229 -2.79053,1.56768l-0.09814,-0.14297c1.9834,-4.73628 3.57275,-6.67134 6.86279,-10.39995z" fill="#a36a2d"/>
      <path d="M147.12012,179.11084c1.13672,-0.53613 1.85596,-0.87158 2.90039,-1.54687c0.53467,0.27393 1.52051,0.72217 1.91602,1.11182l-0.25342,0.04834c-0.35889,-0.18018 -1.19385,-0.66064 -1.52637,-0.66357c-0.02344,0.57129 -0.06885,0.71924 0.18311,1.24072c0.65918,0.4834 0.95801,0.31787 1.36523,0.7793l0.0249,0.16992c-0.53467,-0.16846 -1.36377,-0.3999 -1.84863,-0.62402c-0.92871,0.43506 -2.14893,0.96094 -2.98389,1.5c-1.38091,0.58008 -4.01221,2.12109 -5.52451,2.89893l-0.51343,-0.55518c0.53687,-1.25391 2.48159,-2.12109 3.70913,-2.79785l0.21108,0.03076c1.18711,-0.51416 1.35674,-0.7998 2.34038,-1.59229z" fill="#6e421c"/>
      <path d="M150.08936,143.8626c4.11035,2.18804 9.22119,5.5002 12.01611,9.29854c-1.37402,1.14697 -7.62598,7.19531 -8.58691,8.62354c-1.15283,-0.50098 -2.40234,-1.08545 -3.60059,-1.42676c-0.67383,0.271 -2.58984,1.09717 -3.14502,1.46045c-2.11201,-1.91455 -4.17949,-4.42676 -6.5228,-6.5874c-0.76846,-0.75146 -1.53135,-1.50732 -2.28867,-2.26904c3.52002,-3.79541 7.43481,-6.86895 12.12788,-9.09932z" fill="#b97e33"/>
      <path d="M149.68506,146.17412c1.83984,-0.15381 8.60156,5.24531 9.91846,6.48457c-3.01025,-1.48535 -6.26514,-3.10693 -9.20215,-4.71533c-1.10596,-0.08203 -8.26304,3.9126 -9.92959,4.66699c3.19321,-2.77734 5.52935,-4.37842 9.21328,-6.43623z" fill="#d19846"/>
      <path d="M133.22607,152.87549c1.83032,0.95654 4.02437,2.4917 5.76313,3.66357c0.7062,-0.38232 0.91187,-0.61084 1.26094,-1.30811c2.34331,2.16064 4.41079,4.67285 6.5228,6.5874l-0.23437,0.12451c-0.71206,0.31934 -1.67212,0.71924 -2.33584,1.0752c-2.78613,1.83545 -5.09766,4.30371 -6.74487,7.2041c-1.22036,-0.6665 -2.42197,-1.50879 -3.67354,-2.06689c-0.71851,0.2666 -2.46108,1.24365 -3.21606,1.6377c-1.04165,-2.18848 -4.48081,-7.73877 -6.31245,-9.33398c0.06782,-0.68115 0.47637,-1.08252 0.89502,-1.63037c1.47627,-2.10937 5.76313,-4.81494 8.07524,-5.95312z" fill="#a36a2d"/>
      <path d="M133.22607,152.87549c1.83032,0.95654 4.02437,2.4917 5.76313,3.66357c0.7062,-0.38232 0.91187,-0.61084 1.26094,-1.30811c2.34331,2.16064 4.41079,4.67285 6.5228,6.5874l-0.23437,0.12451c-0.71206,0.31934 -1.67212,0.71924 -2.33584,1.0752c-0.76187,-0.98291 -0.81709,-1.125 -1.87441,-1.82959c-2.42944,-1.00342 -6.46831,-3.46582 -8.92236,-4.81787c-2.50825,1.00342 -6.92988,3.63135 -9.15015,4.08838c0.06782,-0.68115 0.47637,-1.08252 0.89502,-1.63037c1.47627,-2.10937 5.76313,-4.81494 8.07524,-5.95312z" fill="#b97e33"/>
      <path d="M132.94014,154.12793c1.67739,1.4707 8.99824,5.68799 9.38818,7.06055c-2.42944,-1.00342 -6.46831,-3.46582 -8.92236,-4.81787c-2.50825,1.00342 -6.92988,3.63135 -9.15015,4.08838c0.06782,-0.68115 0.47637,-1.08252 0.89502,-1.63037l0.18911,0.28125c1.94868,-0.39844 5.7999,-3.6665 7.6002,-4.98193z" fill="#d19846"/>
      <path d="M140.25015,155.23096c2.34331,2.16064 4.41079,4.67285 6.5228,6.5874l-0.23437,0.12451c-2.53125,-1.77979 -5.04771,-3.58154 -7.54937,-5.40381c0.7062,-0.38232 0.91187,-0.61084 1.26094,-1.30811z" fill="#6e421c"/>
      <path d="M166.81787,152.89893c2.521,0.95654 7.83105,4.61719 9.01758,7.10156c0.08057,0.16992 -0.15674,0.42188 -0.25781,0.57715c-2.92529,2.79346 -4.18652,6.23877 -6.15674,9.20947c-0.97559,-0.54932 -2.21191,-1.37402 -3.20654,-1.73145c-1.30518,0.84229 -2.15479,1.36084 -3.55371,2.06104c-1.53809,-2.58105 -4.35059,-5.79639 -6.95361,-7.2832l-1.56885,-0.74561c2.80518,-2.97363 9.02344,-7.30225 12.67969,-9.18896z" fill="#855022"/>
      <path d="M166.81787,152.89893c2.521,0.95654 7.83105,4.61719 9.01758,7.10156c0.08057,0.16992 -0.15674,0.42188 -0.25781,0.57715c-2.75391,-1.34912 -6.19189,-2.95312 -9.01172,-4.15137c-1.78125,1.12646 -3.58887,2.20898 -5.42285,3.24609c-1.92627,1.06787 -3.56543,2.0083 -5.43604,3.16113l-1.56885,-0.74561c2.80518,-2.97363 9.02344,-7.30225 12.67969,-9.18896z" fill="#a36a2d"/>
      <path d="M164.2251,134.55542c1.94238,1.06128 9.27979,5.87607 9.59619,7.9686c-1.09863,0.84741 -4.35645,7.12148 -4.94385,8.61563l-2.49756,-1.07227c-0.40576,0.24609 -0.87305,0.51416 -1.2627,0.7793c-0.65918,0.43359 -1.32568,0.854 -2.00098,1.26123c-2.20605,-3.5918 -5.10645,-6.12026 -8.43604,-8.5812c3.19922,-3.67339 5.47412,-6.17783 9.54492,-8.97129z" fill="#a36a2d"/>
      <path d="M165.00146,138.32168c2.21631,0.99771 5.53711,2.53096 7.65088,3.6854c0.45996,0.35098 0.56689,0.42554 1.16895,0.51694c-1.09863,0.84741 -4.35645,7.12148 -4.94385,8.61563l-2.49756,-1.07227c-0.40576,0.24609 -0.87305,0.51416 -1.2627,0.7793c-0.02197,-0.67236 0.33105,-3.15527 0.44971,-3.95361c0.49805,-3.38247 0.18457,-5.33438 -0.56543,-8.57139z" fill="#855022"/>
      <path d="M164.42432,136.39468c1.46338,0.7522 7.6377,4.2936 8.28369,5.48086l-0.05566,0.13154c-2.11377,-1.15444 -5.43457,-2.6877 -7.65088,-3.6854c-1.79297,0.54624 -6.55371,3.96577 -7.4209,3.97031c0.04541,-0.19717 0.09961,-0.42847 0.15967,-0.6939c1.78271,-1.17583 4.89844,-4.08413 6.46729,-5.06938z" fill="#b97e33"/>
      <path d="M154.125,127.55552c0.65186,-1.70903 3.90967,-5.21968 5.3584,-6.41309c3.17725,1.10405 6.71484,3.21123 9.22705,5.40308c-0.00879,0.50801 -0.83643,1.65425 -1.16162,2.26553c-0.9082,1.70361 -1.46338,2.9625 -2.04199,4.79121c-0.62402,-0.26719 -1.22461,-0.52456 -1.86035,-0.76948c-0.74121,0.54478 -2.64844,2.03437 -3.42041,2.09561c-0.51123,-0.27363 -0.67236,-0.82441 -0.81299,-1.35586c-0.57422,-1.00605 -4.43408,-5.0748 -5.35986,-5.70015z" fill="#a36a2d"/>
      <path d="M160.61719,123.74766c1.67578,0.65845 3.35449,1.31851 5.02588,1.99043c0.5874,0.23613 2.31006,1.10845 2.74805,1.18872l0.31934,-0.3813c-0.00879,0.50801 -0.83643,1.65425 -1.16162,2.26553c-0.9082,1.70361 -1.46338,2.9625 -2.04199,4.79121c-0.62402,-0.26719 -1.22461,-0.52456 -1.86035,-0.76948c-0.74121,0.54478 -2.64844,2.03437 -3.42041,2.09561c-0.51123,-0.27363 -0.67236,-0.82441 -0.81299,-1.35586c0.37646,0.32271 0.70166,0.91011 0.97705,1.34224c1.11035,-0.9353 2.02881,-1.5605 3.21826,-2.37598c-0.93896,-4.0667 -1.31543,-5.05576 -2.99121,-8.79111z" fill="#855022"/>
      <path d="M154.125,127.55552c0.65186,-1.70903 3.90967,-5.21968 5.3584,-6.41309c3.17725,1.10405 6.71484,3.21123 9.22705,5.40308l-0.31934,0.3813c-0.43799,-0.08027 -2.16064,-0.95259 -2.74805,-1.18872c-1.67139,-0.67192 -3.3501,-1.33198 -5.02588,-1.99043l-0.16553,-0.1002c-1.34326,0.81885 -5.55615,4.04824 -6.39844,4.2249z" fill="url(#color-3)"/>
      <path d="M154.125,127.55552c1.78418,-0.85269 4.59375,-3.91875 5.77881,-4.27676c0.46143,0.15117 0.29883,0.01392 0.54785,0.3687c-1.34326,0.81885 -5.55615,4.04824 -6.39844,4.2249z" fill="#b97e33"/>
      <path d="M95.76416,215.63379c0.86689,-0.61084 2.34741,-0.98437 3.36592,-1.38867c8.26626,-3.27686 16.8498,-2.87402 25.42295,-4.70947c4.10039,-0.87744 7.49941,-2.17969 11.43135,-3.375c1.18813,0.88184 2.33071,1.7373 3.60659,2.49316c1.98516,1.17773 4.1127,2.12695 5.90229,3.59326c0.69053,0.57715 1.33828,1.2041 1.93594,1.87646c0.81885,0.93311 1.60107,2.51367 2.60596,2.92822c0.51563,-0.16992 2.3877,-2.63086 3.20801,-3.25635c2.29395,-1.74316 4.84277,-2.96777 7.32129,-4.44287c1.58203,-0.94189 2.51367,-1.87793 3.88916,-2.86963c2.65283,0.13037 6.46143,1.55713 9.22705,2.10791c5.79785,1.1543 11.78174,1.69629 17.54004,2.85059c3.93018,0.78662 8.77295,2.51221 12.58008,4.00049c0.09521,0.11865 0.19043,0.19043 0.20361,0.30176c-2.26904,0.25488 -4.64502,0.39844 -6.92725,0.55957c-10.71973,0.76172 -21.4248,0.97266 -32.16064,1.15283c-10.34033,0.18311 -20.68301,0.17432 -31.02261,-0.0249c-12.7292,-0.07324 -25.45005,-0.67236 -38.12974,-1.79736z" fill="#d3b157"/>
      <path d="M170.19287,210.65479c1.49414,-0.03662 5.4624,1.91748 4.72119,3.54932c-0.62109,0.48926 -2.56055,0.27246 -3.49072,0.24756c-1.29346,-0.03955 -4.67432,0.43213 -5.37891,-0.49658c-0.13623,-1.49561 2.95166,-2.92822 4.14844,-3.30029z" fill="#aa8d44"/>
      <path d="M129.10781,211.2583c0.98188,0.09082 2.77998,0.67383 2.75156,1.86768c-0.54434,0.68848 -1.44902,0.47021 -2.27007,0.43799l-1.06187,-0.06299c-0.67485,-0.03955 -1.85552,-0.02051 -1.70552,-0.97412c0.67881,-0.73682 1.36099,-0.94775 2.28589,-1.26855z" fill="#aa8d44"/>
      <path d="M175.32715,124.00034c9.55811,-22.06831 25.88818,-25.28906 42.77637,-38.81733l-1.10449,1.67417c-1.59814,1.57778 -2.97217,3.27583 -4.45898,4.96626c-7.00195,7.95718 -14.27637,17.25205 -18.42773,27.06123c-2.21045,5.22305 -3.60791,11.4085 -5.05957,16.8334c-0.54346,2.02808 -3.52002,13.5085 -4.17334,14.43428c-0.04248,-1.59082 -0.09668,-4.80352 -0.40869,-6.32271c-1.57324,-2.78906 -1.14111,-3.86279 -1.49268,-6.75571l-0.03662,-0.17256c-0.0791,-0.50039 0.03955,-0.30278 -0.37061,-0.60879l-0.22705,0.15879l-0.48633,0.10752c-0.61084,-0.20903 -1.13379,-1.85361 -1.37256,-2.53052c-1.29346,-3.66021 -3.19775,-6.70649 -5.15771,-10.02803z" fill="#63949a"/>
      <path d="M182.5708,136.29258l0.4834,-0.28989c0.66504,0.34995 1.38574,6.79922 1.4165,7.82695c-1.57324,-2.78906 -1.14111,-3.86279 -1.49268,-6.75571l-0.03662,-0.17256c-0.0791,-0.50039 0.03955,-0.30278 -0.37061,-0.60879z" fill="#6e421c"/>
      <path d="M82.54424,86.22744c-0.35786,-0.39565 -0.34717,-0.23232 -0.39595,-0.62563c0.84565,0.29766 2.46035,1.69907 3.29487,2.2582c2.24004,1.50073 4.50322,3.14736 6.76948,4.60078c2.17266,1.39351 4.44551,2.69399 6.65098,4.06494c8.33569,5.18188 15.32329,10.48828 21.00879,18.61406c2.11992,3.02988 3.17065,5.84312 4.97681,8.61416c-1.38867,2.45464 -2.72329,4.93945 -4.00283,7.45269c-0.42129,0.84434 -2.1876,4.86636 -2.5103,5.24106c-0.44692,0.02051 -0.4396,0.00513 -0.87759,-0.11499l-0.40928,-0.42612c-0.27568,0.14326 -0.30396,0.0813 -0.38027,0.46934c-0.87231,4.43979 -1.49224,9.45381 -1.54482,13.93169c-0.66885,-1.00635 -4.04561,-13.82109 -4.41475,-15.56675c-3.11704,-14.74175 -9.23672,-26.46768 -18.98643,-37.90518c-2.88574,-3.38525 -5.92676,-7.29243 -9.17871,-10.60825z" fill="#63949a"/>
      <path d="M137.25176,203.13574c4.7811,-0.60498 9.78926,-2.36279 13.75166,-5.13281c3.9624,2.09766 7.34912,4.01514 11.75098,5.18701l0.54932,-0.70605c4.42383,2.04053 8.2002,3.38379 12.98291,4.29785c9.68115,1.8501 20.08301,1.76807 29.23389,5.7041c1.37256,0.59033 3.40283,1.46924 4.62451,2.36426c-1.67871,0.32813 -4.49854,0.87891 -6.14062,0.89355c-0.01318,-0.11133 -0.1084,-0.18311 -0.20361,-0.30176c-3.80713,-1.48828 -8.6499,-3.21387 -12.58008,-4.00049c-5.7583,-1.1543 -11.74219,-1.69629 -17.54004,-2.85059c-2.76562,-0.55078 -6.57422,-1.97754 -9.22705,-2.10791c-1.37549,0.9917 -2.30713,1.92773 -3.88916,2.86963c-2.47852,1.4751 -5.02734,2.69971 -7.32129,4.44287c-0.82031,0.62549 -2.69238,3.08643 -3.20801,3.25635c-1.00488,-0.41455 -1.78711,-1.99512 -2.60596,-2.92822c-0.59766,-0.67236 -1.24541,-1.29932 -1.93594,-1.87646c-1.7896,-1.46631 -3.91714,-2.41553 -5.90229,-3.59326c-1.27588,-0.75586 -2.41846,-1.61133 -3.60659,-2.49316c-3.93193,1.19531 -7.33096,2.49756 -11.43135,3.375c-8.57314,1.83545 -17.15669,1.43262 -25.42295,4.70947c-1.01851,0.4043 -2.49902,0.77783 -3.36592,1.38867c-1.52886,0.07178 -4.32524,-0.39551 -5.82246,-0.68848c5.15288,-5.25 26.88398,-6.62695 34.55098,-8.24121c4.28672,-0.90381 8.45229,-2.31006 12.4106,-4.18799z" fill="#aa8d44"/>
      <path d="M137.25176,203.13574c4.7811,-0.60498 9.78926,-2.36279 13.75166,-5.13281c3.9624,2.09766 7.34912,4.01514 11.75098,5.18701c-2.61768,4.0752 -5.91064,4.2876 -9.27539,7.20703c-1.43994,1.24805 -2.52832,3.2124 -3.45703,4.86475c-1.19385,-1.90723 -2.2002,-3.78955 -3.96855,-5.27637c-2.74541,-2.30713 -6.98936,-3.42627 -8.80166,-6.84961z" fill="#3f7176"/>
      <path d="M82.54424,86.22744c3.25195,3.31582 6.29297,7.223 9.17871,10.60825c9.74971,11.4375 15.86938,23.16343 18.98643,37.90518c0.36914,1.74565 3.7459,14.5604 4.41475,15.56675c0.00469,1.19678 0.02197,2.39209 -0.04043,3.58594c-0.68906,-0.12598 -0.84536,-0.12744 -1.45913,-0.4292c-0.76919,-1.13525 -1.31089,-2.54736 -1.99746,-3.71631c-1.06948,-1.81934 -2.0332,-3.61099 -3.02637,-5.47529c-2.69927,-5.0231 -5.24648,-10.12646 -7.63813,-15.30308c-4.08223,-8.9792 -7.86841,-19.0582 -11.77031,-28.22358c-1.327,-3.04614 -2.71992,-6.06299 -4.17773,-9.04863c-0.80654,-1.68179 -1.92407,-3.75542 -2.47031,-5.47002z" fill="#4f7f83"/>
      <path d="M184.87939,150.15234c0.65332,-0.92578 3.62988,-12.4062 4.17334,-14.43428c1.45166,-5.4249 2.84912,-11.61035 5.05957,-16.8334c4.15137,-9.80918 11.42578,-19.10405 18.42773,-27.06123c1.48682,-1.69043 2.86084,-3.38848 4.45898,-4.96626c-0.34277,1.48784 -1.7417,4.20396 -2.44336,5.69722c-1.2832,2.69546 -2.52539,5.41011 -3.7251,8.14292c-3.29004,7.59243 -6.24316,15.39053 -9.49658,22.99629c-3.73682,8.74995 -7.98193,17.27358 -12.71631,25.5271c-1.0415,1.77686 -1.74609,3.93896 -3.71924,4.70361c-0.03516,-1.23633 -0.01758,-2.52979 -0.01904,-3.77197z" fill="#4f7f83"/>
      <path d="M57.15674,160.0708c1.59595,0.15381 3.16011,0.17432 4.74697,0.38818c6.85547,0.92285 11.8998,2.62207 18.24829,5.17969c1.1666,0.56543 2.44717,1.1543 3.58726,1.75049c0.60762,0.42773 7.97505,4.97314 8.23726,5.06396c5.27988,3.82617 19.41094,11.62646 25.6125,12.38525c0.45029,0.16699 1.35894,0.36914 1.76294,0.57275c1.61631,0.81592 3.6126,2.34814 4.97153,3.53906c-2.45918,0.18311 -4.91265,0.38672 -7.37065,0.58301c-3.13447,0.25049 -6.34233,-1.2085 -9.27891,-2.09912c-12.61641,-3.82764 -22.67402,-12.271 -33.63003,-19.16748c-5.33262,-3.35596 -10.95732,-6.09375 -16.88716,-8.1958z" fill="#63949a"/>
      <path d="M219.99463,165.68848c8.29248,-3.52881 13.98926,-5.06836 23.06543,-5.61621c-5.18555,1.75342 -10.1748,4.0415 -14.88574,6.82764c-11.8125,7.00928 -21.92285,16.16309 -35.21191,20.40088c-2.17383,0.69287 -5.62939,1.98047 -7.87793,2.07275c-2.79199,0.11572 -6.4541,-0.43652 -9.39258,-0.62256c1.54834,-1.02539 4.03564,-3.22705 5.47852,-3.646c11.40527,-2.71729 18.19922,-6.77051 27.86279,-13.23926c0.31934,-0.16699 1.22461,-0.83496 1.64648,-1.09717c1.80176,-1.11035 3.61523,-2.20312 5.43896,-3.27832c1.37109,-0.69287 2.44189,-1.21289 3.87598,-1.80176z" fill="#63949a"/>
      <path d="M206.54443,160.5l1.47363,-0.51123c-2.74658,4.00049 -5.19287,8.15479 -8.12256,12.01172c-0.7749,1.021 -1.95996,2.66602 -2.83447,3.57422c2.28223,-0.59473 4.54248,-1.27881 6.77197,-2.05078c1.12646,-0.39697 4.22607,-1.71094 5.2002,-1.6582c-9.66357,6.46875 -16.45752,10.52197 -27.86279,13.23926l-0.12598,-0.22705c0.18604,-0.58887 1.86182,-1.98486 2.34814,-2.80078c2.0874,-3.50244 5.354,-5.12842 8.52832,-7.60107c2.51953,-1.97461 4.95703,-4.05322 7.30664,-6.22852c1.20117,-1.12939 6.64746,-7.37402 7.31689,-7.74756z" fill="#28565c"/>
      <path d="M91.80659,159.84521c0.50215,0.15234 1.12983,0.36475 1.62686,0.49072c5.26143,5.72021 10.41738,11.20898 16.75957,15.81006c1.25654,0.91113 2.70308,1.88086 3.88887,2.90625c1.73013,1.87939 3.06167,3.73096 4.87266,5.68652l-0.04497,0.12012c-0.43228,-0.02783 -0.89839,-0.08643 -1.32056,-0.02051c-6.20156,-0.75879 -20.33262,-8.55908 -25.6125,-12.38525c0.87803,-0.06592 4.08618,1.29492 5.13867,1.64355c2.25923,0.74854 4.24277,1.40625 6.61772,1.82373c-4.43906,-5.26465 -7.72031,-10.77539 -11.92632,-16.0752z" fill="#28565c"/>
      <path d="M186.28125,156.72217c4.51318,-6.26807 8.12695,-14.72021 12.02051,-21.34673c-2.26465,8.76284 -5.0332,21.71294 -10.25391,29.56743c-0.53174,0.7998 -3.76758,2.6499 -4.79297,3.25488l-0.1377,0.08057c1.18945,-2.35107 2.39795,-8.84033 3.16406,-11.55615z" fill="#28565c"/>
      <path d="M116.89395,168.19336c-0.07324,-0.03076 -0.14722,-0.06006 -0.21958,-0.09229c-1.39058,-0.62109 -2.74321,-1.45312 -3.77036,-2.59131c-2.05078,-2.27197 -3.77769,-7.47217 -4.88936,-10.37549c-0.60674,-1.5835 -5.93276,-18.82734 -5.9083,-18.88198c0.79189,0.34907 9.12524,17.93862 11.56772,20.46108c0.06299,0.06445 0.12832,0.12744 0.19248,0.19189c0.7377,2.66162 1.81699,9.01318 3.02739,11.28809z" fill="#28565c"/>
      <path d="M150.38965,192.2915c4.39746,4.79297 6.90527,7.25098 12.91406,10.19238l-0.54932,0.70605c-4.40186,-1.17187 -7.78857,-3.08936 -11.75098,-5.18701c-3.9624,2.77002 -8.97056,4.52783 -13.75166,5.13281l-0.34849,-0.61963c6.01772,-2.90039 8.98652,-5.29102 13.48638,-10.22461z" fill="#28565c"/>
      <path d="M141.37295,184.02539c2.50078,1.00635 5.90684,2.18701 8.65195,2.01855l0.0835,0.03516c-0.16992,0.99463 -0.15381,3.51709 -0.1626,4.60547c-3.23291,-1.37695 -6.30527,-4.00049 -8.57285,-6.65918z" fill="#6e421c"/>
      <path d="M227.30566,152.73633c0.52441,1.14404 1.13525,2.61621 1.84424,3.61963c-1.35498,0.10547 -4.30811,-0.09375 -5.87109,-0.10693c0.40869,-0.2373 1.35059,-0.14355 1.875,-0.13477c0.72803,-0.75439 1.55273,-2.3877 2.15186,-3.37793z" fill="#1d1d16"/>
      <path d="M95.70352,88.77026c0.57451,1.58833 1.07813,3.23892 2.02632,4.63477c-1.40479,-0.67529 -3.11279,-1.78345 -4.42354,-2.63057c0.93076,-0.51328 1.61382,-1.27324 2.39722,-2.0042z" fill="#1d1d16"/>
      <path d="M204.30469,88.81172c0.88184,0.69111 1.41357,1.34751 2.40527,1.98325c-1.14111,0.75044 -2.55615,1.70713 -3.77637,2.27095c0.32959,-1.5728 0.75293,-2.78408 1.37109,-4.2542z" fill="#1d1d16"/>
      <path d="M72.71807,152.79639c0.86206,1.19092 1.31309,2.3833 2.30112,3.40869c-0.91304,0.08643 -3.46025,0.2124 -4.37124,0.14209c1.10156,-0.86719 1.46396,-2.21924 2.07012,-3.55078z" fill="#1d1d16"/>
      <path d="M77.59116,115.76895c0.56895,1.46382 0.97749,2.74219 1.92495,4.01763c-0.93633,-0.17197 -3.25122,-0.93472 -4.26211,-1.23691c0.86338,-0.9646 1.54395,-1.76045 2.33716,-2.78071z" fill="#1d1d16"/>
      <path d="M87.34556,122.98931c0.57495,0.09023 0.69946,0.22559 1.17759,-0.17007c0.61758,-0.51094 1.13979,-1.29478 1.68999,-1.89565c0.27817,1.21172 0.70078,3.40005 1.22666,4.44346c-1.57588,-0.68218 -2.68257,-1.41182 -4.09424,-2.37773z" fill="#1d1d16"/>
      <path d="M222.3999,115.83896c0.95068,1.00298 1.42383,1.61265 2.24414,2.73384c-1.29053,0.38774 -2.59131,0.7645 -3.86426,1.20879z" fill="#1d1d16"/>
      <path d="M80.152,165.63867c0.28579,-0.68994 1.10435,-1.91016 1.54072,-2.55762c0.31611,0.57275 2.12446,3.74707 2.10059,4.22607l-0.05405,0.08203c-1.14009,-0.59619 -2.42065,-1.18506 -3.58726,-1.75049z" fill="#1d1d16"/>
      <path d="M218.26904,163.14844c0.56396,0.7749 1.17773,1.73438 1.72559,2.54004c-1.43408,0.58887 -2.50488,1.10889 -3.87598,1.80176c0.09082,-0.49072 1.79443,-3.65918 2.15039,-4.3418z" fill="#1d1d16"/>
      <path d="M209.12109,125.09106c-0.18896,-0.90879 0.49512,-3.10034 0.75732,-4.1061c0.94922,0.78325 1.46045,1.68267 2.47412,2.28149c-0.94189,0.59824 -2.21924,1.35483 -3.23145,1.82461z" fill="#1d1d16"/>
      <path d="M196.22607,192.9082c1.20996,-0.52295 2.40674,-1.07666 3.5874,-1.66113c0.01465,1.17041 0.00732,2.34229 -0.02051,3.5127c-0.7749,-0.5127 -2.68506,-1.41504 -3.56689,-1.85156z" fill="#1d1d16"/>
      <path d="M83.31357,154.47949c0.50962,0.8833 1.47349,2.76563 2.23682,3.26807c-1.59448,-0.00586 -3.83657,-0.72656 -5.37671,-1.2627c0.56426,0.01465 1.01221,0.01172 1.56812,0.104c0.59531,-0.93604 0.82368,-1.29346 1.57178,-2.10937z" fill="#1d1d16"/>
      <path d="M100.12485,191.32031c1.49912,0.3457 2.29233,1.18066 3.80288,1.46777c-1.29141,0.58301 -2.55249,1.229 -3.77827,1.93945z" fill="#1d1d16"/>
      <path d="M216.83057,154.45459c0.62402,0.83643 1.17627,1.57764 1.85889,2.36572c-1.21436,0.41602 -3.0249,0.86719 -4.30811,0.92871c0.95947,-0.51416 1.7959,-2.25879 2.44922,-3.29443z" fill="#1d1d16"/>
      <path d="M96.0126,195.66943c1.1792,-0.22998 2.15039,-0.33691 3.34937,-0.46582c-0.6334,0.74561 -1.51245,1.42383 -2.27563,2.05811c0.26177,-0.55078 0.18149,-0.62256 0.0498,-1.25977c-0.43125,-0.41602 -0.34233,-0.27979 -1.12354,-0.33252z" fill="#bda971"/>
      <path d="M125.51704,190.51611c2.5314,-0.38086 3.93779,1.29785 6.47344,2.00684c4.8085,1.34326 9.88242,1.78711 14.80298,0.89795c-5.49023,5.61621 -14.11216,9.63135 -21.74473,11.33203c-2.84883,0.63428 -6.17754,1.10889 -9.08306,1.53809c-3.06182,0.48486 -6.13315,0.90527 -9.21211,1.26416c-7.1833,1.10449 -10.2416,1.69482 -16.8126,4.95264c1.0853,-3.97559 3.31025,-8.12549 5.84912,-11.36279c5.75552,-7.33594 15.55503,-9.35889 24.35171,-10.14404c1.79121,-0.15967 3.57964,-0.28857 5.37524,-0.48486z" fill="#63949a"/>
      <path d="M238.41797,117.48472l0.04688,0.02607l0.0498,0.20215c-1.17627,0.91802 -2.23828,2.35796 -3.27686,3.44927c-15.85254,16.65923 -27.6416,40.49355 -46.72119,53.81338l-0.08789,-0.06152c0.46582,-1.17041 1.25977,-2.354 1.7959,-3.5083c0.86865,-1.87061 1.62744,-3.77051 2.354,-5.69824c0.36914,-0.97852 0.92871,-3.26221 1.47803,-4.05322c2.09473,-3.00586 4.78564,-5.64404 6.84668,-8.69971c3.34277,-4.76074 6.85254,-9.479 10.61426,-13.90078c7.54688,-8.80107 16.66992,-16.11606 26.90039,-21.56909z" fill="#63949a"/>
      <path d="M61.33799,117.47241c2.73721,1.08003 5.78232,3.16846 8.28223,4.8394c7.33403,4.90181 13.93608,10.81875 19.60869,17.57432c3.96914,4.75063 7.73833,10.15928 11.39795,15.16611c1.70903,2.33936 3.90396,4.51904 5.47148,6.7749c0.19307,0.27832 1.53003,4.39307 1.84351,5.24121c1.14243,3.09229 2.27007,5.28223 3.97031,8.06104c-1.25435,-0.43213 -3.85356,-2.82129 -4.94004,-3.74707c-16.61001,-14.17529 -27.09888,-33.81958 -41.752,-49.76865c-1.2624,-1.37402 -2.49229,-2.91958 -3.88213,-4.14126z" fill="#63949a"/>
      <path d="M109.45811,165.59766c2.18569,1.03271 4.53633,3.32373 7.00254,4.46484c3.05039,1.41357 6.04072,2.49463 9.11851,3.79834c2.36733,0.97852 4.32524,2.50635 6.42129,3.8877c5.17427,3.41016 8.16709,8.7876 13.25273,12.27832c0.39155,0.26953 1.6106,1.04443 1.86694,1.32715l-0.22852,0.16992c-5.77939,1.31982 -11.99985,0.36475 -17.34873,-2.06689c-10.24702,-4.6582 -16.25405,-13.65234 -20.08477,-23.85937z" fill="#63949a"/>
      <path d="M190.57617,165.39697c-0.06152,0.76318 -1.21143,3.30322 -1.59375,4.1543c-6.36914,14.15918 -19.3374,25.01221 -35.73486,22.00488l-0.32812,-0.12598c0.01318,-0.06738 0.02637,-0.13477 0.03955,-0.20361c1.23486,-0.75293 3.25635,-2.26904 4.27588,-3.16553c2.2793,-2.00391 4.06934,-4.27002 6.15234,-6.39697c2.28516,-2.33643 5.03027,-4.35205 7.78857,-6.04834c3.36182,-2.06543 6.97852,-3.18164 10.56445,-4.69043c3.02051,-1.27148 6.22559,-3.49219 8.83594,-5.52832z" fill="#63949a"/>
      <path d="M172.94092,190.45166c5.09326,-0.71924 14.63818,1.68604 19.74902,2.77881c-5.90186,0.91992 -10.7417,2.84033 -16.43994,4.44141c-1.51611,0.42627 -3.67969,0.62549 -5.27344,0.79688c-7.62744,0.14502 -12.96094,-0.48193 -19.00635,-5.39062c1.50879,0.16846 3.04102,0.64307 4.62451,0.74561c6.08643,0.39404 10.99219,-0.64746 16.34619,-3.37207z" fill="#28565c"/>
      <path d="M95.19141,140.34624l0.11455,0.09551c0.14355,0.73828 -0.73447,3.32021 -1.00649,4.1811l-0.8168,-1.03433c-0.54155,-0.63882 -1.14624,-1.49678 -1.65703,-2.18452c1.13101,-0.32285 2.25337,-0.67559 3.36577,-1.05776z" fill="#1d1d16"/>
      <path d="M204.58008,140.37964c1.09277,0.21445 2.69092,0.69668 3.8042,0.99507l-1.57764,1.91997l-1.0415,1.34019c-0.42041,-1.32393 -0.81152,-2.8998 -1.18506,-4.25522z" fill="#1d1d16"/>
      <path d="M150.00439,47.67788c1.25537,5.39736 2.06689,10.22388 3.62256,15.60557c1.96143,6.78662 4.59521,12.99507 6.86279,19.55933c0.79688,2.30654 1.55859,4.62524 2.28516,6.95522c0.3208,1.03521 0.96826,3.32271 1.3623,4.24907c0.52148,1.72808 0.84521,3.36577 1.2876,5.09502l0.67236,2.8749c0.54346,2.73516 1.03418,5.48027 1.47363,8.23403c0.10107,1.08574 0.29443,2.65269 0.31641,3.70767c0.0542,1.07065 0.11572,2.14102 0.1875,3.21079c-0.69434,-0.7292 -1.33008,-1.21582 -2.1123,-1.84409l-0.10693,-0.4062c-0.82324,-0.52295 -0.79248,-0.34775 -1.51758,0.33721c-0.74121,-0.58198 -1.63184,-1.327 -2.43311,-1.78213c-2.47998,-1.75693 -5.31885,-2.94185 -8.31299,-3.46919c-1.46338,-0.21855 -2.12109,-0.32622 -3.60352,-0.32856l-0.10107,0.03794c-4.93345,0.04336 -7.97476,1.07695 -11.775,4.19795c-0.41016,0.34644 -1.83838,1.69409 -2.12563,1.80952c-0.16772,-0.48003 -0.39434,-0.98188 -0.85576,-1.20688c-0.6022,0.04277 -0.40767,0.02183 -0.96914,0.42393l0.04468,0.16626c-0.75571,0.69932 -1.50688,1.40376 -2.25322,2.11304c0.22471,-0.95669 0.36709,-2.22847 0.33794,-3.20947c0.02886,-1.06377 0.12026,-2.24502 0.1793,-3.31743c0.03691,-0.07983 1.2772,-7.77495 1.43481,-8.73633c0.15586,-0.84697 0.46465,-1.95 0.67881,-2.80693c0.46963,-1.72163 0.83804,-3.39551 1.39849,-5.10015c2.63437,-9.59722 6.38833,-18.36621 9.4812,-27.80054c2.12373,-6.47915 3.12422,-12.03193 4.54072,-18.56953z" fill="#63949a"/>
      <path d="M150.15527,58.29521c0.58447,1.87471 1.01074,3.78325 1.5791,5.6603c3.67529,12.1292 8.95313,23.66484 11.84033,36.04497c1.14844,4.92275 2.25146,9.81929 2.28076,14.9187c-0.82324,-0.52295 -0.79248,-0.34775 -1.51758,0.33721c-0.74121,-0.58198 -1.63184,-1.327 -2.43311,-1.78213c-2.47998,-1.75693 -5.31885,-2.94185 -8.31299,-3.46919c-1.46338,-0.21855 -2.12109,-0.32622 -3.60352,-0.32856c0.04834,-17.11992 -0.1377,-34.275 0.16699,-51.3813z" fill="#4f7f83"/>
      <path d="M150.00439,47.67788c1.25537,5.39736 2.06689,10.22388 3.62256,15.60557c1.96143,6.78662 4.59521,12.99507 6.86279,19.55933c0.79688,2.30654 1.55859,4.62524 2.28516,6.95522c0.3208,1.03521 0.96826,3.32271 1.3623,4.24907c0.52148,1.72808 0.84521,3.36577 1.2876,5.09502l0.67236,2.8749c0.54346,2.73516 1.03418,5.48027 1.47363,8.23403c0.10107,1.08574 0.29443,2.65269 0.31641,3.70767c0.0542,1.07065 0.11572,2.14102 0.1875,3.21079c-0.69434,-0.7292 -1.33008,-1.21582 -2.1123,-1.84409l-0.10693,-0.4062c-0.0293,-5.09941 -1.13232,-9.99595 -2.28076,-14.9187c-2.88721,-12.38013 -8.16504,-23.91577 -11.84033,-36.04497c-0.56836,-1.87705 -0.99463,-3.7856 -1.5791,-5.6603l-0.2124,-0.0063c-0.56543,1.87925 -0.9668,3.91494 -1.55713,5.76563c-5.25234,16.44888 -13.50073,33.42275 -14.22407,50.88442l0.04468,0.16626c-0.75571,0.69932 -1.50688,1.40376 -2.25322,2.11304c0.22471,-0.95669 0.36709,-2.22847 0.33794,-3.20947c0.02886,-1.06377 0.12026,-2.24502 0.1793,-3.31743c0.03691,-0.07983 1.2772,-7.77495 1.43481,-8.73633c0.15586,-0.84697 0.46465,-1.95 0.67881,-2.80693c0.46963,-1.72163 0.83804,-3.39551 1.39849,-5.10015c2.63437,-9.59722 6.38833,-18.36621 9.4812,-27.80054c2.12373,-6.47915 3.12422,-12.03193 4.54072,-18.56953z" fill="#3f7176"/>
      <path d="M186.48486,59.25483c-0.03369,4.94312 -0.31494,9.82383 -0.46582,14.75317c-0.25928,8.40322 0.38379,16.83589 -0.14941,25.23486c-0.08057,1.26797 -0.12598,2.60142 -0.13623,3.86982c0.00439,0.698 -0.01758,1.86313 0.0498,2.5147c-0.7251,0.73638 -3.80127,4.24424 -4.27734,4.59053c-0.66943,0.80317 -1.75635,2.0332 -2.32031,2.86084c-1.17334,1.61265 -4.97168,7.33154 -4.98633,9.18809l0.06299,0.13359l-0.21094,0.58096l-0.1084,0.2395c-0.36475,0.04951 -0.49365,0.05215 -0.86279,0.04995c-0.75879,-0.89048 -1.4458,-1.8939 -2.2002,-2.79888c-0.92871,-1.11563 -1.8999,-2.16709 -2.80518,-3.30249c-0.07178,-1.06978 -0.1333,-2.14014 -0.1875,-3.21079c-0.02197,-1.05498 -0.21533,-2.62192 -0.31641,-3.70767c-0.43945,-2.75376 -0.93018,-5.49888 -1.47363,-8.23403l-0.67236,-2.8749c-0.44238,-1.72925 -0.76611,-3.36694 -1.2876,-5.09502c0.65771,-1.16426 1.1792,-2.5519 1.96729,-3.92725c3.72363,-6.45937 9.18311,-13.16045 13.47217,-19.32437c2.64844,-3.80742 4.56885,-7.59653 6.9082,-11.54063z" fill="#3f7176"/>
      <path d="M164.13721,94.04707c0.65771,-1.16426 1.1792,-2.5519 1.96729,-3.92725c2.37598,6.01904 4.75488,12.08467 6.03955,18.45586c0.33398,1.65498 0.64893,3.31567 0.96533,4.97402c4.63916,-5.09531 6.85547,-6.80435 12.62402,-10.43701c0.00439,0.698 -0.01758,1.86313 0.0498,2.5147c-0.7251,0.73638 -3.80127,4.24424 -4.27734,4.59053c-0.66943,0.80317 -1.75635,2.0332 -2.32031,2.86084c-1.17334,1.61265 -4.97168,7.33154 -4.98633,9.18809l0.06299,0.13359l-0.21094,0.58096l-0.1084,0.2395c-0.36475,0.04951 -0.49365,0.05215 -0.86279,0.04995c-0.75879,-0.89048 -1.4458,-1.8939 -2.2002,-2.79888c-0.92871,-1.11563 -1.8999,-2.16709 -2.80518,-3.30249c-0.07178,-1.06978 -0.1333,-2.14014 -0.1875,-3.21079c-0.02197,-1.05498 -0.21533,-2.62192 -0.31641,-3.70767c-0.43945,-2.75376 -0.93018,-5.49888 -1.47363,-8.23403l-0.67236,-2.8749c-0.44238,-1.72925 -0.76611,-3.36694 -1.2876,-5.09502z" fill="#28565c"/>
      <path d="M178.04297,109.58862c1.15283,0.12144 2.32324,0.39141 3.46289,0.6293c-0.66943,0.80317 -1.75635,2.0332 -2.32031,2.86084c-0.13037,-0.27217 -0.91992,-2.87329 -1.14258,-3.49014z" fill="#1d1d16"/>
      <path d="M167.5708,110.25103c1.0166,0.29209 2.13867,0.84419 3.10547,1.30137l-2.78906,2.4063c-0.02197,-1.05498 -0.21533,-2.62192 -0.31641,-3.70767z" fill="#1d1d16"/>
      <path d="M165.4248,99.14209l0.19922,-0.24814c0.81885,0.07793 1.96143,0.56191 2.76563,0.85122c-0.91113,0.80098 -1.54395,1.32144 -2.29248,2.27183z" fill="#1d1d16"/>
      <path d="M114.26235,103.17642l-0.71206,-43.9144c1.95234,3.44678 3.99346,7.26899 6.21973,10.51758c4.74053,6.91729 10.32217,13.68794 14.51528,20.92998c0.49658,0.91875 1.23237,2.6417 1.69717,3.33838c-0.56045,1.70464 -0.92886,3.37852 -1.39849,5.10015c-0.21416,0.85693 -0.52295,1.95996 -0.67881,2.80693c-0.15762,0.96138 -1.3979,8.65649 -1.43481,8.73633c-0.05903,1.07241 -0.15044,2.25366 -0.1793,3.31743c0.02915,0.98101 -0.11323,2.25278 -0.33794,3.20947c-1.10259,1.06392 -1.79546,1.83882 -2.75889,3.00791c-0.5751,0.69785 -1.73789,2.31563 -2.36177,2.80151c-0.40488,-0.1645 -0.80552,-0.33911 -1.20176,-0.52354l0.2707,-0.42949c-0.29253,-1.78096 -3.7686,-7.17026 -4.95234,-8.72153c-0.83452,-1.13115 -1.4792,-1.96201 -2.40439,-3.01611c-0.50024,-0.34995 -3.39888,-3.81943 -4.20015,-4.60693c0.03398,-1.03154 0.01919,-1.5271 -0.08218,-2.55366z" fill="#3f7176"/>
      <path d="M134.2853,90.70957c0.49658,0.91875 1.23237,2.6417 1.69717,3.33838c-0.56045,1.70464 -0.92886,3.37852 -1.39849,5.10015c-0.21416,0.85693 -0.52295,1.95996 -0.67881,2.80693c-0.15762,0.96138 -1.3979,8.65649 -1.43481,8.73633c-0.05903,1.07241 -0.15044,2.25366 -0.1793,3.31743c0.02915,0.98101 -0.11323,2.25278 -0.33794,3.20947c-1.10259,1.06392 -1.79546,1.83882 -2.75889,3.00791c-0.5751,0.69785 -1.73789,2.31563 -2.36177,2.80151c-0.40488,-0.1645 -0.80552,-0.33911 -1.20176,-0.52354l0.2707,-0.42949c-0.29253,-1.78096 -3.7686,-7.17026 -4.95234,-8.72153c-0.83452,-1.13115 -1.4792,-1.96201 -2.40439,-3.01611c-0.50024,-0.34995 -3.39888,-3.81943 -4.20015,-4.60693c0.03398,-1.03154 0.01919,-1.5271 -0.08218,-2.55366c4.38252,2.47002 10.09585,6.95391 13.38589,10.78008c0.73228,-6.55181 3.8124,-17.3499 6.63706,-23.24692z" fill="#28565c"/>
      <path d="M118.54468,110.33701c0.78018,-0.38013 2.60859,-0.5272 3.5083,-0.61655c-0.42612,1.15356 -0.73154,2.67041 -1.10391,3.63267c-0.83452,-1.13115 -1.4792,-1.96201 -2.40439,-3.01611z" fill="url(#color-4)"/>
      <path d="M129.52017,111.59033c0.69111,-0.35903 2.07524,-1.13452 2.79653,-1.19487l0.15366,0.2959c-0.05903,1.07241 -0.15044,2.25366 -0.1793,3.31743c-1.07051,-0.85884 -1.80835,-1.45488 -2.7709,-2.41846z" fill="#1d1d16"/>
      <path d="M131.91562,99.72715c0.74634,-0.23379 1.99512,-0.74385 2.66836,-0.57905c-0.21416,0.85693 -0.52295,1.95996 -0.67881,2.80693c-0.68438,-0.71514 -1.33726,-1.48213 -1.98955,-2.22788z" fill="#1d1d16"/>
      <path d="M80.09048,198.87451c5.27476,-1.22461 10.58438,-2.29248 15.92212,-3.20508c0.7812,0.05273 0.69229,-0.0835 1.12354,0.33252c0.13169,0.63721 0.21196,0.70898 -0.0498,1.25977c-0.38423,0.34277 -1.53296,1.40479 -1.91016,1.5791c-0.1875,0.58301 -1.79736,2.74072 -2.27446,3.23145c-1.69468,2.51953 -2.53374,4.39014 -3.66138,7.13672c-0.60469,0.5625 -3.07163,0.2168 -4.19268,0.29297c-1.88628,-0.00879 -3.77212,-0.05273 -5.65649,-0.1333c-1.84834,0.08643 -4.7127,-0.07031 -6.62607,-0.12158c-3.21489,-0.22705 -7.09058,0.05859 -10.21919,-0.67822c-11.57827,-2.72461 2.64917,-5.99561 5.75889,-6.73535c3.81006,-0.81592 7.99951,-1.9834 11.78569,-2.95898z" fill="#d3b157"/>
      <path d="M95.17617,198.84082c-0.1875,0.58301 -1.79736,2.74072 -2.27446,3.23145c-1.33652,-0.6167 -2.66719,-1.24512 -3.99229,-1.88525c1.58291,-0.2124 4.52241,-0.98437 6.26675,-1.34619z" fill="#1d1d16"/>
      <path d="M79.39116,209.36865c2.73311,-0.07178 7.10244,-0.69873 9.84917,-0.15967c-0.60469,0.5625 -3.07163,0.2168 -4.19268,0.29297c-1.88628,-0.00879 -3.77212,-0.05273 -5.65649,-0.1333z" fill="#bda971"/>
      <path d="M81.07954,202.16162c0.84155,-0.05273 1.40039,0.00146 2.21763,0.23584c0.97178,0.27832 2.65737,1.59082 2.25059,2.729c-0.37939,0.12012 -1.9314,-0.02051 -2.6959,0.04248l-0.19907,0.01758c-1.17671,0.09229 -3.75659,0.42334 -4.55713,-0.54492c-0.1229,-1.19824 2.02368,-2.10498 2.98389,-2.47998z" fill="#aa8d44"/>
      <path d="M71.83345,204.81885c0.89648,0.01611 2.24941,0.01318 2.79697,0.86572l-0.1229,0.28125c-0.55518,0.33252 -1.21304,0.27832 -1.88687,0.31055c-0.82661,-0.04395 -1.75605,0.47461 -2.61753,-0.14355l0.00806,-0.30029c0.54653,-0.74561 0.91128,-0.80566 1.82227,-1.01367z" fill="#aa8d44"/>
      <path d="M200.49756,195.08789c3.91992,0.58154 7.8252,1.2627 11.71143,2.04053c1.7417,0.34717 4.13086,0.77783 5.77441,1.30957c4.5835,1.10303 9.29443,2.32178 13.88379,3.34131c2.04639,0.4834 10.11182,2.21631 10.1543,4.84277c-1.12061,2.521 -12.05566,2.61768 -14.73926,2.38623c-5.29834,0.16553 -10.78271,0.45117 -16.06348,0.49072l-0.4541,-0.72949c-0.38525,-1.83545 -2.72168,-5.18262 -3.50391,-6.81445c-0.37061,-0.31641 -2.31006,-2.77295 -2.71289,-3.271c-1.27002,-1.12354 -2.87695,-2.43311 -4.05029,-3.59619z" fill="#d3b157"/>
      <path d="M204.54785,198.68408c1.94971,0.45703 4.79004,1.24658 6.66797,1.54248c-1.27002,0.56836 -2.72461,1.1543 -3.95508,1.72852c-0.37061,-0.31641 -2.31006,-2.77295 -2.71289,-3.271z" fill="#1d1d16"/>
      <path d="M218.06396,202.03418c1.28027,0.01904 5.12842,0.95947 4.8252,2.63672c-0.74121,0.66064 -1.79883,0.4585 -2.83301,0.43506c-1.86621,-0.01025 -3.73242,-0.03076 -5.59863,-0.06299c0.75146,-1.99219 1.52197,-2.56494 3.60645,-3.00879z" fill="#635d2c"/>
      <path d="M227.9707,205.11768c1.20264,-0.05127 2.19873,-0.11426 3.03076,0.94043c-0.32227,0.51563 -0.10107,0.31201 -0.76172,0.54199c-0.82617,0.11133 -2.7041,0.24316 -2.96924,-0.76318c0.18604,-0.42773 0.31055,-0.45264 0.7002,-0.71924z" fill="#aa8d44"/>
      <path d="M223.38574,191.45654c0.05566,-4.06494 2.41113,-10.80176 4.21143,-14.37598c-1.34326,6.44385 -1.49121,13.64941 -1.06201,20.19727c1.48828,-4.40332 2.51367,-7.40186 5.52539,-11.13574c0.28564,0.58447 0.31641,0.59912 0.82031,1.03271c-2.0332,4.8252 -2.62354,6.39404 -3.44385,11.66016c2.55908,-3.77637 4.42969,-5.47559 8.90918,-6.85107c-3.45117,3.20947 -5.40234,5.1665 -6.479,9.79541c-4.58936,-1.01953 -9.30029,-2.23828 -13.88379,-3.34131c-0.10693,-0.70312 -0.45264,-1.55566 -0.6958,-2.24121c-0.23877,-0.34717 -0.98877,-1.78125 -1.35205,-2.35547c0.99023,0.41016 1.85596,0.74268 2.66162,1.47217c0.80859,0.57861 1.10742,1.02832 1.71973,1.81055c-0.34863,-1.7124 -0.67236,-3.28857 -1.11475,-4.98047c0.72656,-0.22119 1.23193,-0.5874 1.87646,-0.98584l0.71777,1.12354c0.22412,0.06738 0.49951,0.12891 0.73096,0.1875c0.56104,-0.25635 0.46729,-0.35449 0.8584,-1.01221z" fill="#635d2c"/>
      <path d="M221.79639,192.28125c0.22412,0.06738 0.49951,0.12891 0.73096,0.1875c0.56104,-0.25635 0.46729,-0.35449 0.8584,-1.01221c-0.18457,1.56006 -0.10107,3.04688 -0.27539,4.46338c-0.39697,-1.13672 -0.83789,-2.57666 -1.31396,-3.63867z" fill="#1d1d16"/>
      <path d="M217.2876,196.19678c-0.23877,-0.34717 -0.98877,-1.78125 -1.35205,-2.35547c0.99023,0.41016 1.85596,0.74268 2.66162,1.47217l-0.08936,0.25195c-0.28418,-0.23291 -0.44092,-0.37646 -0.75879,-0.56396c-0.54199,0.30908 -0.47461,0.39697 -0.32227,1.05322z" fill="#5d5a36"/>
      <path d="M73.4707,197.05664c0.62256,-6.81885 0.21782,-13.69336 -1.20059,-20.39355c2.30713,4.88818 3.61641,8.53271 4.30327,13.9834c0.21489,1.70508 0.15864,3.53027 0.36123,5.14307c1.75298,-4.95117 2.83623,-6.31201 6.90029,-9.63281c-2.0231,2.99414 -4.53018,8.96045 -3.96855,12.52588l0.22412,0.19189c-3.78618,0.97559 -7.97563,2.14307 -11.78569,2.95898c-0.91523,-2.95752 -1.49663,-4.50439 -3.56074,-6.79541c0.50112,0.01318 0.2855,0.08496 0.67603,-0.19922c0.20215,-0.50684 0.15088,-0.67383 0.11147,-1.21143c2.42227,1.52344 3.48193,2.80371 5.11289,5.07715c-0.96899,-6.06738 -2.56318,-9.99316 -5.48423,-15.36475c3.20962,2.98975 5.14951,5.40967 6.84463,9.59766c0.54302,1.34033 0.94351,2.81982 1.46587,4.11914z" fill="#635d2c"/>
      <path d="M77.35972,213.46875c1.65396,-0.10693 3.82939,0.56104 4.7373,2.02441c0.16113,1.69189 -2.77456,1.4209 -3.96548,1.45166c-1.2438,0.00732 -4.62612,0.40723 -5.29014,-0.68115c0.19102,-1.52051 3.21006,-2.56201 4.51831,-2.79492z" fill="#aa8d44"/>
      <path d="M219.20215,192.14355c-0.48047,-1.51758 -2.15479,-4.75195 -3.03955,-6.13623c2.15771,1.86475 3.31787,2.82129 4.91602,5.15039c-0.64453,0.39844 -1.1499,0.76465 -1.87646,0.98584z" fill="#5d5a36"/>
      <path d="M61.54365,191.94727c1.60898,0.50537 2.54238,0.82617 3.98789,1.68018c0.0394,0.5376 0.09067,0.70459 -0.11147,1.21143c-0.39053,0.28418 -0.1749,0.2124 -0.67603,0.19922c-0.99712,-1.12646 -2.08975,-2.08154 -3.20039,-3.09082z" fill="#5d5a36"/>
      <path d="M234.97559,183.23584c-0.78662,1.37402 -1.39307,2.52686 -2.09473,3.93896c-0.50391,-0.43359 -0.53467,-0.44824 -0.82031,-1.03271c1.07666,-1.26709 1.67285,-1.80469 2.91504,-2.90625z" fill="#5d5a36"/>
    </g>
    </g>
  </svg>
</svg>
